# Blender 3.4.0
# www.blender.org
mtllib Arrow.mtl
o Cylinder
v 0.000000 0.034728 0.000003
v 0.000000 0.034728 4.301735
v 0.006775 0.034061 0.000003
v 0.006775 0.034061 4.301735
v 0.013290 0.032085 0.000003
v 0.013290 0.032085 4.301735
v 0.019294 0.028875 0.000003
v 0.019294 0.028875 4.301735
v 0.024557 0.024557 0.000003
v 0.024557 0.024557 4.301735
v 0.028875 0.019294 0.000003
v 0.028875 0.019294 4.301735
v 0.032085 0.013290 0.000003
v 0.032085 0.013290 4.301735
v 0.034061 0.006775 0.000003
v 0.034061 0.006775 4.301735
v 0.034728 0.000000 0.000003
v 0.034728 0.000000 4.301735
v 0.034061 -0.006775 0.000003
v 0.034061 -0.006775 4.301735
v 0.032085 -0.013290 0.000003
v 0.032085 -0.013290 4.301735
v 0.028875 -0.019294 0.000003
v 0.028875 -0.019294 4.301735
v 0.024557 -0.024557 0.000003
v 0.024557 -0.024557 4.301735
v 0.019294 -0.028875 0.000003
v 0.019294 -0.028875 4.301735
v 0.013290 -0.032085 0.000003
v 0.013290 -0.032085 4.301735
v 0.006775 -0.034061 0.000003
v 0.006775 -0.034061 4.301735
v 0.000000 -0.034728 0.000003
v 0.000000 -0.034728 4.301735
v -0.006775 -0.034061 0.000003
v -0.006775 -0.034061 4.301735
v -0.013290 -0.032085 0.000003
v -0.013290 -0.032085 4.301735
v -0.019294 -0.028875 0.000003
v -0.019294 -0.028875 4.301735
v -0.024557 -0.024557 0.000003
v -0.024557 -0.024557 4.301735
v -0.028875 -0.019294 0.000003
v -0.028875 -0.019294 4.301735
v -0.032085 -0.013290 0.000003
v -0.032085 -0.013290 4.301735
v -0.034061 -0.006775 0.000003
v -0.034061 -0.006775 4.301735
v -0.034728 0.000000 0.000003
v -0.034728 0.000000 4.301735
v -0.034061 0.006775 0.000003
v -0.034061 0.006775 4.301735
v -0.032085 0.013290 0.000003
v -0.032085 0.013290 4.301735
v -0.028875 0.019294 0.000003
v -0.028875 0.019294 4.301735
v -0.024557 0.024557 0.000003
v -0.024557 0.024557 4.301735
v -0.019294 0.028875 0.000003
v -0.019294 0.028875 4.301735
v -0.013290 0.032085 0.000003
v -0.013290 0.032085 4.301735
v -0.006775 0.034061 0.000003
v -0.006775 0.034061 4.301735
v 0.044393 0.223177 4.301737
v 0.000000 0.227549 4.301737
v 0.087079 0.210228 4.301737
v 0.126419 0.189200 4.301737
v 0.160901 0.160901 4.301737
v 0.189200 0.126419 4.301737
v 0.210228 0.087079 4.301737
v 0.223177 0.044393 4.301737
v 0.227549 0.000000 4.301737
v 0.223177 -0.044393 4.301737
v 0.210228 -0.087079 4.301737
v 0.189200 -0.126419 4.301737
v 0.160901 -0.160901 4.301737
v 0.126419 -0.189200 4.301737
v 0.087079 -0.210228 4.301737
v 0.044393 -0.223177 4.301737
v 0.000000 -0.227549 4.301737
v -0.044393 -0.223177 4.301737
v -0.087079 -0.210228 4.301737
v -0.126419 -0.189200 4.301737
v -0.160901 -0.160901 4.301737
v -0.189200 -0.126419 4.301737
v -0.210228 -0.087079 4.301737
v -0.223177 -0.044393 4.301737
v -0.227549 0.000000 4.301737
v -0.223177 0.044393 4.301737
v -0.210228 0.087079 4.301737
v -0.189200 0.126419 4.301737
v -0.160901 0.160901 4.301737
v -0.126419 0.189200 4.301737
v -0.087079 0.210228 4.301737
v -0.044393 0.223177 4.301737
v 0.000000 0.000000 4.849137
v 0.000000 0.000000 4.849137
v 0.000000 0.000000 4.849137
v 0.000000 0.000000 4.849137
v 0.000000 0.000000 4.849137
v 0.000000 0.000000 4.849137
v 0.000000 0.000000 4.849137
v 0.000000 0.000000 4.849137
v 0.000000 0.000000 4.849137
v 0.000000 0.000000 4.849137
v 0.000000 0.000000 4.849137
v 0.000000 0.000000 4.849137
v 0.000000 0.000000 4.849137
v 0.000000 0.000000 4.849137
v 0.000000 0.000000 4.849137
v 0.000000 0.000000 4.849137
v 0.000000 0.000000 4.849137
v 0.000000 0.000000 4.849137
v 0.000000 0.000000 4.849137
v 0.000000 0.000000 4.849137
v 0.000000 0.000000 4.849137
v 0.000000 0.000000 4.849137
v 0.000000 0.000000 4.849137
v 0.000000 0.000000 4.849137
v 0.000000 0.000000 4.849137
v 0.000000 0.000000 4.849137
v 0.000000 0.000000 4.849137
v 0.000000 0.000000 4.849137
v 0.000000 0.000000 4.849137
v 0.000000 0.000000 4.849137
v 0.000000 0.000000 4.849137
v 0.000000 0.000000 4.849137
vn 0.0980 0.9952 -0.0000
vn 0.2903 0.9569 -0.0000
vn 0.4714 0.8819 -0.0000
vn 0.6344 0.7730 -0.0000
vn 0.7730 0.6344 -0.0000
vn 0.8819 0.4714 -0.0000
vn 0.9569 0.2903 -0.0000
vn 0.9952 0.0980 -0.0000
vn 0.9952 -0.0980 -0.0000
vn 0.9569 -0.2903 -0.0000
vn 0.8819 -0.4714 -0.0000
vn 0.7730 -0.6344 -0.0000
vn 0.6344 -0.7730 -0.0000
vn 0.4714 -0.8819 -0.0000
vn 0.2903 -0.9569 -0.0000
vn 0.0980 -0.9952 -0.0000
vn -0.0980 -0.9952 -0.0000
vn -0.2903 -0.9569 -0.0000
vn -0.4714 -0.8819 -0.0000
vn -0.6344 -0.7730 -0.0000
vn -0.7730 -0.6344 -0.0000
vn -0.8819 -0.4714 -0.0000
vn -0.9569 -0.2903 -0.0000
vn -0.9952 -0.0980 -0.0000
vn -0.9952 0.0980 -0.0000
vn -0.9569 0.2903 -0.0000
vn -0.8819 0.4714 -0.0000
vn -0.7730 0.6344 -0.0000
vn -0.6344 0.7730 -0.0000
vn -0.4714 0.8819 -0.0000
vn -0.0000 -0.0000 -1.0000
vn -0.2903 0.9569 -0.0000
vn -0.0980 0.9952 -0.0000
vn 0.8149 0.4356 0.3823
vn -0.0000 -0.0000 1.0000
vn -0.5862 -0.7143 0.3823
vn 0.8843 0.2682 0.3823
vn -0.7143 -0.5862 0.3823
vn 0.9196 0.0906 0.3823
vn -0.8149 -0.4356 0.3823
vn 0.9196 -0.0906 0.3823
vn -0.8843 -0.2682 0.3823
vn 0.8843 -0.2682 0.3823
vn -0.9196 -0.0906 0.3823
vn 0.8149 -0.4356 0.3823
vn -0.9196 0.0906 0.3823
vn 0.7143 -0.5862 0.3823
vn -0.8843 0.2682 0.3823
vn 0.5862 -0.7143 0.3823
vn -0.8149 0.4356 0.3823
vn 0.4356 -0.8149 0.3823
vn 0.0906 0.9196 0.3823
vn -0.7143 0.5862 0.3823
vn 0.2682 -0.8843 0.3823
vn 0.2682 0.8843 0.3823
vn -0.5862 0.7143 0.3823
vn 0.0906 -0.9196 0.3823
vn 0.4356 0.8149 0.3823
vn -0.4356 0.8149 0.3823
vn -0.0906 -0.9196 0.3823
vn 0.5862 0.7143 0.3823
vn -0.2682 0.8843 0.3823
vn -0.2682 -0.8843 0.3823
vn 0.7143 0.5862 0.3823
vn -0.0906 0.9196 0.3823
vn -0.4356 -0.8149 0.3823
vt 1.000000 0.500000
vt 0.000000 0.500000
vt 0.750000 0.490000
vt 1.000000 1.000000
vt 0.000000 1.000000
vt 0.968750 0.500000
vt 0.796822 0.485388
vt 0.968750 1.000000
vt 0.937500 0.500000
vt 0.841844 0.471731
vt 0.937500 1.000000
vt 0.906250 0.500000
vt 0.883337 0.449553
vt 0.906250 1.000000
vt 0.875000 0.500000
vt 0.919706 0.419706
vt 0.875000 1.000000
vt 0.843750 0.500000
vt 0.949553 0.383337
vt 0.843750 1.000000
vt 0.812500 0.500000
vt 0.971731 0.341844
vt 0.812500 1.000000
vt 0.781250 0.500000
vt 0.985388 0.296822
vt 0.781250 1.000000
vt 0.750000 0.500000
vt 0.990000 0.250000
vt 0.750000 1.000000
vt 0.718750 0.500000
vt 0.985388 0.203178
vt 0.718750 1.000000
vt 0.687500 0.500000
vt 0.971731 0.158156
vt 0.687500 1.000000
vt 0.656250 0.500000
vt 0.949553 0.116663
vt 0.656250 1.000000
vt 0.625000 0.500000
vt 0.919706 0.080294
vt 0.625000 1.000000
vt 0.593750 0.500000
vt 0.883337 0.050447
vt 0.593750 1.000000
vt 0.562500 0.500000
vt 0.841844 0.028269
vt 0.562500 1.000000
vt 0.531250 0.500000
vt 0.796822 0.014612
vt 0.531250 1.000000
vt 0.500000 0.500000
vt 0.750000 0.010000
vt 0.500000 1.000000
vt 0.468750 0.500000
vt 0.703178 0.014612
vt 0.468750 1.000000
vt 0.437500 0.500000
vt 0.658156 0.028269
vt 0.437500 1.000000
vt 0.406250 0.500000
vt 0.616663 0.050447
vt 0.406250 1.000000
vt 0.375000 0.500000
vt 0.580294 0.080294
vt 0.375000 1.000000
vt 0.343750 0.500000
vt 0.550447 0.116663
vt 0.343750 1.000000
vt 0.312500 0.500000
vt 0.528269 0.158156
vt 0.312500 1.000000
vt 0.281250 0.500000
vt 0.514612 0.203178
vt 0.281250 1.000000
vt 0.250000 0.500000
vt 0.510000 0.250000
vt 0.250000 1.000000
vt 0.218750 0.500000
vt 0.514612 0.296822
vt 0.218750 1.000000
vt 0.187500 0.500000
vt 0.528269 0.341844
vt 0.187500 1.000000
vt 0.156250 0.500000
vt 0.550447 0.383337
vt 0.156250 1.000000
vt 0.125000 0.500000
vt 0.580294 0.419706
vt 0.125000 1.000000
vt 0.093750 0.500000
vt 0.616663 0.449553
vt 0.093750 1.000000
vt 0.062500 0.500000
vt 0.658156 0.471731
vt 0.062500 1.000000
vt 0.031250 0.500000
vt 0.703178 0.485388
vt 0.031250 1.000000
vt 0.968750 1.000000
vt 1.000000 1.000000
vt 0.000000 1.000000
vt 0.937500 1.000000
vt 0.906250 1.000000
vt 0.875000 1.000000
vt 0.843750 1.000000
vt 0.812500 1.000000
vt 0.781250 1.000000
vt 0.750000 1.000000
vt 0.718750 1.000000
vt 0.687500 1.000000
vt 0.656250 1.000000
vt 0.625000 1.000000
vt 0.593750 1.000000
vt 0.562500 1.000000
vt 0.531250 1.000000
vt 0.500000 1.000000
vt 0.468750 1.000000
vt 0.437500 1.000000
vt 0.406250 1.000000
vt 0.375000 1.000000
vt 0.343750 1.000000
vt 0.312500 1.000000
vt 0.281250 1.000000
vt 0.250000 1.000000
vt 0.218750 1.000000
vt 0.187500 1.000000
vt 0.156250 1.000000
vt 0.125000 1.000000
vt 0.093750 1.000000
vt 0.062500 1.000000
vt 0.031250 1.000000
vt 0.296822 0.485388
vt 0.968750 1.000000
vt 0.250000 0.490000
vt 1.000000 1.000000
vt 0.000000 1.000000
vt 0.341844 0.471731
vt 0.937500 1.000000
vt 0.383337 0.449553
vt 0.906250 1.000000
vt 0.419706 0.419706
vt 0.875000 1.000000
vt 0.449553 0.383337
vt 0.843750 1.000000
vt 0.471731 0.341844
vt 0.812500 1.000000
vt 0.485388 0.296822
vt 0.781250 1.000000
vt 0.490000 0.250000
vt 0.750000 1.000000
vt 0.485388 0.203178
vt 0.718750 1.000000
vt 0.471731 0.158156
vt 0.687500 1.000000
vt 0.449553 0.116663
vt 0.656250 1.000000
vt 0.419706 0.080294
vt 0.625000 1.000000
vt 0.383337 0.050447
vt 0.593750 1.000000
vt 0.341844 0.028269
vt 0.562500 1.000000
vt 0.296822 0.014612
vt 0.531250 1.000000
vt 0.250000 0.010000
vt 0.500000 1.000000
vt 0.203178 0.014612
vt 0.468750 1.000000
vt 0.158156 0.028269
vt 0.437500 1.000000
vt 0.116663 0.050447
vt 0.406250 1.000000
vt 0.080294 0.080294
vt 0.375000 1.000000
vt 0.050447 0.116663
vt 0.343750 1.000000
vt 0.028269 0.158156
vt 0.312500 1.000000
vt 0.014612 0.203178
vt 0.281250 1.000000
vt 0.010000 0.250000
vt 0.250000 1.000000
vt 0.014612 0.296822
vt 0.218750 1.000000
vt 0.028269 0.341844
vt 0.187500 1.000000
vt 0.050447 0.383337
vt 0.156250 1.000000
vt 0.080294 0.419706
vt 0.125000 1.000000
vt 0.116663 0.449553
vt 0.093750 1.000000
vt 0.158156 0.471731
vt 0.062500 1.000000
vt 0.203178 0.485388
vt 0.031250 1.000000
s 0
f 1/1/1 2/4/1 4/8/1 3/6/1
f 3/6/2 4/8/2 6/11/2 5/9/2
f 5/9/3 6/11/3 8/14/3 7/12/3
f 7/12/4 8/14/4 10/17/4 9/15/4
f 9/15/5 10/17/5 12/20/5 11/18/5
f 11/18/6 12/20/6 14/23/6 13/21/6
f 13/21/7 14/23/7 16/26/7 15/24/7
f 15/24/8 16/26/8 18/29/8 17/27/8
f 17/27/9 18/29/9 20/32/9 19/30/9
f 19/30/10 20/32/10 22/35/10 21/33/10
f 21/33/11 22/35/11 24/38/11 23/36/11
f 23/36/12 24/38/12 26/41/12 25/39/12
f 25/39/13 26/41/13 28/44/13 27/42/13
f 27/42/14 28/44/14 30/47/14 29/45/14
f 29/45/15 30/47/15 32/50/15 31/48/15
f 31/48/16 32/50/16 34/53/16 33/51/16
f 33/51/17 34/53/17 36/56/17 35/54/17
f 35/54/18 36/56/18 38/59/18 37/57/18
f 37/57/19 38/59/19 40/62/19 39/60/19
f 39/60/20 40/62/20 42/65/20 41/63/20
f 41/63/21 42/65/21 44/68/21 43/66/21
f 43/66/22 44/68/22 46/71/22 45/69/22
f 45/69/23 46/71/23 48/74/23 47/72/23
f 47/72/24 48/74/24 50/77/24 49/75/24
f 49/75/25 50/77/25 52/80/25 51/78/25
f 51/78/26 52/80/26 54/83/26 53/81/26
f 53/81/27 54/83/27 56/86/27 55/84/27
f 55/84/28 56/86/28 58/89/28 57/87/28
f 57/87/29 58/89/29 60/92/29 59/90/29
f 59/90/30 60/92/30 62/95/30 61/93/30
f 52/80/31 50/77/31 89/124/31 90/125/31
f 61/93/32 62/95/32 64/98/32 63/96/32
f 63/96/33 64/98/33 2/5/33 1/2/33
f 1/3/31 3/7/31 5/10/31 7/13/31 9/16/31 11/19/31 13/22/31 15/25/31 17/28/31 19/31/31 21/34/31 23/37/31 25/40/31 27/43/31 29/46/31 31/49/31 33/52/31 35/55/31 37/58/31 39/61/31 41/64/31 43/67/31 45/70/31 47/73/31 49/76/31 51/79/31 53/82/31 55/85/31 57/88/31 59/91/31 61/94/31 63/97/31
f 71/106/34 70/105/34 102/144/34 103/146/34
f 8/14/31 6/11/31 67/102/31 68/103/31
f 26/41/31 24/38/31 76/111/31 77/112/31
f 44/68/31 42/65/31 85/120/31 86/121/31
f 62/95/31 60/92/31 94/129/31 95/130/31
f 18/29/31 16/26/31 72/107/31 73/108/31
f 36/56/31 34/53/31 81/116/31 82/117/31
f 54/83/31 52/80/31 90/125/31 91/126/31
f 10/17/31 8/14/31 68/103/31 69/104/31
f 28/44/31 26/41/31 77/112/31 78/113/31
f 46/71/31 44/68/31 86/121/31 87/122/31
f 64/98/31 62/95/31 95/130/31 96/131/31
f 20/32/31 18/29/31 73/108/31 74/109/31
f 38/59/31 36/56/31 82/117/31 83/118/31
f 56/86/31 54/83/31 91/126/31 92/127/31
f 12/20/31 10/17/31 69/104/31 70/105/31
f 30/47/31 28/44/31 78/113/31 79/114/31
f 48/74/31 46/71/31 87/122/31 88/123/31
f 4/8/31 2/4/31 66/100/31 65/99/31
f 2/5/31 64/98/31 96/131/31 66/101/31
f 22/35/31 20/32/31 74/109/31 75/110/31
f 40/62/31 38/59/31 83/118/31 84/119/31
f 58/89/31 56/86/31 92/127/31 93/128/31
f 14/23/31 12/20/31 70/105/31 71/106/31
f 32/50/31 30/47/31 79/114/31 80/115/31
f 50/77/31 48/74/31 88/123/31 89/124/31
f 6/11/31 4/8/31 65/99/31 67/102/31
f 24/38/31 22/35/31 75/110/31 76/111/31
f 42/65/31 40/62/31 84/119/31 85/120/31
f 60/92/31 58/89/31 93/128/31 94/129/31
f 16/26/31 14/23/31 71/106/31 72/107/31
f 34/53/31 32/50/31 80/115/31 81/116/31
f 97/132/35 98/134/35 128/195/35 127/193/35 126/191/35 125/189/35 124/187/35 123/185/35 122/183/35 121/181/35 120/179/35 119/177/35 118/175/35 117/173/35 116/171/35 115/169/35 114/167/35 113/165/35 112/163/35 111/161/35 110/159/35 109/157/35 108/155/35 107/153/35 106/151/35 105/149/35 104/147/35 103/145/35 102/143/35 101/141/35 100/139/35 99/137/35
f 85/120/36 84/119/36 116/172/36 117/174/36
f 72/107/37 71/106/37 103/146/37 104/148/37
f 86/121/38 85/120/38 117/174/38 118/176/38
f 73/108/39 72/107/39 104/148/39 105/150/39
f 87/122/40 86/121/40 118/176/40 119/178/40
f 74/109/41 73/108/41 105/150/41 106/152/41
f 88/123/42 87/122/42 119/178/42 120/180/42
f 75/110/43 74/109/43 106/152/43 107/154/43
f 89/124/44 88/123/44 120/180/44 121/182/44
f 76/111/45 75/110/45 107/154/45 108/156/45
f 90/125/46 89/124/46 121/182/46 122/184/46
f 77/112/47 76/111/47 108/156/47 109/158/47
f 91/126/48 90/125/48 122/184/48 123/186/48
f 78/113/49 77/112/49 109/158/49 110/160/49
f 92/127/50 91/126/50 123/186/50 124/188/50
f 79/114/51 78/113/51 110/160/51 111/162/51
f 65/99/52 66/100/52 98/135/52 97/133/52
f 93/128/53 92/127/53 124/188/53 125/190/53
f 80/115/54 79/114/54 111/162/54 112/164/54
f 67/102/55 65/99/55 97/133/55 99/138/55
f 94/129/56 93/128/56 125/190/56 126/192/56
f 81/116/57 80/115/57 112/164/57 113/166/57
f 68/103/58 67/102/58 99/138/58 100/140/58
f 95/130/59 94/129/59 126/192/59 127/194/59
f 82/117/60 81/116/60 113/166/60 114/168/60
f 69/104/61 68/103/61 100/140/61 101/142/61
f 96/131/62 95/130/62 127/194/62 128/196/62
f 83/118/63 82/117/63 114/168/63 115/170/63
f 70/105/64 69/104/64 101/142/64 102/144/64
f 66/101/65 96/131/65 128/196/65 98/136/65
f 84/119/66 83/118/66 115/170/66 116/172/66
